<svg width="128" height="43" viewBox="0 0 128 43" fill="none" xmlns="http://www.w3.org/2000/svg">
<g clip-path="url(#clip0_110_3891)">
<path d="M117.807 0.65541H10.1989C9.80663 0.65541 9.41909 0.65541 9.02789 0.65751C8.70041 0.65961 8.37554 0.66571 8.04492 0.670845C7.32666 0.679142 6.61008 0.74117 5.90143 0.85639C5.19377 0.974119 4.50827 1.19607 3.86813 1.51474C3.22877 1.83611 2.64457 2.25369 2.13672 2.75233C1.62621 3.24958 1.20066 3.82433 0.876427 4.45448C0.551304 5.08337 0.325862 5.7573 0.207889 6.45296C0.0887936 7.14775 0.0247074 7.85056 0.0162054 8.55506C0.00627891 8.877 0.00523064 9.2 0 9.52197V33.7919C0.00523064 34.118 0.00627891 34.4338 0.0162054 34.7599C0.02471 35.4644 0.0887962 36.1672 0.207889 36.8619C0.325536 37.558 0.550991 38.2323 0.876427 38.8614C1.20051 39.4896 1.62612 40.062 2.13672 40.5565C2.64265 41.0573 3.22722 41.4752 3.86813 41.7941C4.50827 42.1136 5.19369 42.3369 5.90143 42.4564C6.61021 42.5707 7.32671 42.6328 8.04492 42.6421C8.37554 42.6492 8.70041 42.6533 9.02789 42.6533C9.41908 42.6554 9.80665 42.6554 10.1989 42.6554H117.807C118.191 42.6554 118.582 42.6554 118.966 42.6533C119.292 42.6533 119.627 42.6492 119.953 42.6421C120.669 42.6333 121.385 42.5712 122.092 42.4564C122.802 42.3361 123.49 42.1128 124.133 41.7941C124.773 41.475 125.357 41.0572 125.863 40.5565C126.372 40.06 126.799 39.488 127.127 38.8614C127.45 38.2319 127.673 37.5576 127.789 36.8619C127.908 36.1671 127.975 35.4645 127.987 34.7599C127.992 34.4338 127.992 34.118 127.992 33.7919C128 33.4105 128 33.0311 128 32.6435V10.6683C128 10.2838 128 9.90238 127.992 9.52197C127.992 9.2 127.992 8.87699 127.987 8.55502C127.975 7.85045 127.908 7.14781 127.789 6.45292C127.673 5.75766 127.449 5.08379 127.127 4.45444C126.466 3.19137 125.419 2.16324 124.133 1.51465C123.49 1.19676 122.802 0.974862 122.092 0.856296C121.385 0.740568 120.669 0.678518 119.953 0.670698C119.627 0.665574 119.292 0.659421 118.966 0.657373C118.582 0.655273 118.191 0.655273 117.807 0.655273V0.65541Z" fill="#A6A6A6"/>
<path d="M9.03312 41.7367C8.70722 41.7367 8.38918 41.7326 8.06584 41.7255C7.396 41.7169 6.72772 41.6597 6.06649 41.5542C5.44993 41.45 4.85264 41.2561 4.29434 40.9789C3.74115 40.7041 3.23661 40.3437 2.80002 39.9115C2.35712 39.4844 1.98838 38.9891 1.70842 38.4452C1.42538 37.8977 1.2295 37.3109 1.1276 36.7051C1.01755 36.0542 0.958017 35.3961 0.949498 34.7364C0.942716 34.5149 0.933838 33.7776 0.933838 33.7776V9.52203C0.933838 9.52203 0.943294 8.79605 0.949551 8.58276C0.957708 7.92408 1.0169 7.26695 1.12661 6.61709C1.2287 6.00968 1.42473 5.42115 1.70793 4.87188C1.98686 4.32831 2.35355 3.83262 2.79379 3.40403C3.23353 2.97137 3.73969 2.6091 4.29382 2.33044C4.85084 2.05417 5.44699 1.86164 6.06231 1.7593C6.72571 1.6528 7.3963 1.59521 8.06847 1.58704L9.03364 1.57422H118.961L119.938 1.58755C120.604 1.59532 121.268 1.65239 121.926 1.75827C122.547 1.86189 123.15 2.05577 123.713 2.33352C124.823 2.8951 125.726 3.78359 126.296 4.87444C126.575 5.41993 126.768 6.00365 126.869 6.60581C126.98 7.26101 127.042 7.92329 127.055 8.58738C127.058 8.88474 127.058 9.20415 127.058 9.52203C127.066 9.91578 127.066 10.2906 127.066 10.6684V32.6435C127.066 33.025 127.066 33.3972 127.058 33.7725C127.058 34.1139 127.058 34.4267 127.054 34.7487C127.041 35.4009 126.98 36.0514 126.871 36.6948C126.771 37.3049 126.576 37.8964 126.293 38.4483C126.011 38.9864 125.645 39.4774 125.207 39.9033C124.77 40.3378 124.264 40.7003 123.71 40.9769C123.148 41.2562 122.547 41.4508 121.926 41.5542C121.265 41.6602 120.596 41.7175 119.926 41.7255C119.613 41.7326 119.285 41.7367 118.966 41.7367L117.807 41.7388L9.03312 41.7367Z" fill="black"/>
<path d="M26.4944 21.9707C26.5059 21.0943 26.743 20.235 27.1837 19.4728C27.6245 18.7105 28.2545 18.0701 29.0151 17.6111C28.5319 16.9336 27.8944 16.3761 27.1533 15.9829C26.4122 15.5896 25.5879 15.3714 24.7459 15.3455C22.9497 15.1604 21.2083 16.4006 20.293 16.4006C19.36 16.4006 17.9507 15.3639 16.4331 15.3945C15.4515 15.4256 14.4949 15.7058 13.6564 16.2078C12.8179 16.7098 12.1262 17.4164 11.6486 18.2588C9.5799 21.7746 11.123 26.9417 13.1047 29.7837C14.0961 31.1753 15.2549 32.7297 16.7711 32.6746C18.2547 32.6142 18.8089 31.7459 20.5998 31.7459C22.3741 31.7459 22.894 32.6746 24.441 32.6396C26.033 32.6142 27.0361 31.2418 27.9928 29.837C28.7051 28.8454 29.2533 27.7495 29.617 26.5898C28.692 26.2058 27.9027 25.563 27.3474 24.7416C26.7921 23.9202 26.4954 22.9565 26.4944 21.9707Z" fill="white"/>
<path d="M23.5726 13.4772C24.4406 12.4542 24.8683 11.1395 24.7647 9.81201C23.4385 9.94874 22.2135 10.5709 21.3337 11.5546C20.9035 12.0352 20.5741 12.5942 20.3642 13.1998C20.1543 13.8054 20.068 14.4457 20.1103 15.0841C20.7737 15.0908 21.4299 14.9496 22.0296 14.6713C22.6293 14.3929 23.1569 13.9847 23.5726 13.4772Z" fill="white"/>
<path d="M45.2493 29.1518H40.1861L38.9702 32.6761H36.8257L41.6214 19.6372H43.8495L48.6452 32.6761H46.4641L45.2493 29.1518ZM40.7105 27.5256H44.7239L42.7454 21.8059H42.6901L40.7105 27.5256Z" fill="white"/>
<path d="M59.0023 27.9233C59.0023 30.8774 57.3916 32.7754 54.9608 32.7754C54.345 32.8071 53.7327 32.6678 53.1938 32.3737C52.6549 32.0795 52.2113 31.6424 51.9137 31.1122H51.8677V35.8208H49.8799V23.1696H51.8041V24.7507H51.8406C52.1518 24.2231 52.6029 23.7882 53.1459 23.4923C53.6889 23.1964 54.3035 23.0505 54.9242 23.0701C57.3821 23.0701 59.0023 24.9773 59.0023 27.9233ZM56.9591 27.9233C56.9591 25.9986 55.9458 24.7333 54.3999 24.7333C52.881 24.7333 51.8594 26.0253 51.8594 27.9233C51.8594 29.8387 52.881 31.1215 54.3999 31.1215C55.9459 31.1215 56.9591 29.8654 56.9591 27.9233Z" fill="white"/>
<path d="M69.6615 27.9233C69.6615 30.8774 68.0507 32.7754 65.62 32.7754C65.0042 32.807 64.3918 32.6678 63.853 32.3737C63.3141 32.0795 62.8705 31.6424 62.5729 31.1122H62.5269V35.8208H60.5391V23.1696H62.4632V24.7507H62.4998C62.811 24.2231 63.2621 23.7882 63.8051 23.4923C64.3481 23.1964 64.9626 23.0505 65.5834 23.0701C68.0413 23.0701 69.6615 24.9773 69.6615 27.9233ZM67.6183 27.9233C67.6183 25.9986 66.605 24.7333 65.059 24.7333C63.5402 24.7333 62.5186 26.0253 62.5186 27.9233C62.5186 29.8387 63.5402 31.1215 65.059 31.1215C66.605 31.1215 67.6183 29.8654 67.6183 27.9233H67.6183Z" fill="white"/>
<path d="M76.7063 29.0433C76.8536 30.3363 78.1332 31.1853 79.8818 31.1853C81.5574 31.1853 82.7628 30.3362 82.7628 29.1704C82.7628 28.1583 82.0358 27.5523 80.3143 27.137L78.5928 26.7299C76.1537 26.1516 75.0214 25.0319 75.0214 23.2149C75.0214 20.9652 77.0186 19.4199 79.8547 19.4199C82.6615 19.4199 84.5856 20.9652 84.6504 23.2149H82.6437C82.5236 21.9137 81.4278 21.1282 79.8265 21.1282C78.2251 21.1282 77.1293 21.9229 77.1293 23.0795C77.1293 24.0014 77.8292 24.5438 79.5413 24.959L81.0047 25.3118C83.7301 25.9445 84.8624 27.0191 84.8624 28.9263C84.8624 31.3657 82.8829 32.8935 79.7345 32.8935C76.7888 32.8935 74.7999 31.4016 74.6714 29.0432L76.7063 29.0433Z" fill="white"/>
<path d="M89.1524 20.9209V23.1706H90.9941V24.7159H89.1524V29.9566C89.1524 30.7708 89.5212 31.1502 90.3308 31.1502C90.5494 31.1465 90.7677 31.1314 90.9847 31.105V32.6411C90.6207 32.7078 90.2507 32.7381 89.8805 32.7313C87.9198 32.7313 87.1552 32.0084 87.1552 30.1648V24.7159H85.7471V23.1706H87.1552V20.9209H89.1524Z" fill="white"/>
<path d="M92.0605 27.9243C92.0605 24.9333 93.8551 23.0537 96.6536 23.0537C99.4615 23.0537 101.248 24.9332 101.248 27.9243C101.248 30.9236 99.4709 32.7949 96.6536 32.7949C93.8374 32.7949 92.0605 30.9236 92.0605 27.9243ZM99.2223 27.9243C99.2223 25.8725 98.2644 24.6615 96.6536 24.6615C95.0429 24.6615 94.086 25.8817 94.086 27.9243C94.086 29.9843 95.0429 31.1861 96.6536 31.1861C98.2644 31.1861 99.2222 29.9843 99.2222 27.9243H99.2223Z" fill="white"/>
<path d="M102.887 23.1695H104.783V24.7875H104.829C104.957 24.2822 105.259 23.8356 105.683 23.5228C106.107 23.21 106.628 23.0501 107.158 23.07C107.387 23.0692 107.616 23.0936 107.839 23.1428V24.968C107.55 24.8813 107.248 24.8414 106.946 24.8501C106.657 24.8386 106.369 24.8886 106.102 24.9966C105.835 25.1046 105.595 25.2682 105.398 25.4759C105.201 25.6837 105.052 25.9309 104.962 26.2004C104.872 26.4699 104.842 26.7554 104.875 27.0372V32.6759H102.887L102.887 23.1695Z" fill="white"/>
<path d="M117.004 29.8849C116.737 31.6106 115.025 32.7949 112.834 32.7949C110.017 32.7949 108.269 30.942 108.269 27.9694C108.269 24.9876 110.027 23.0537 112.751 23.0537C115.43 23.0537 117.115 24.8604 117.115 27.7428V28.4114H110.275V28.5293C110.244 28.8792 110.288 29.2316 110.406 29.5632C110.524 29.8949 110.712 30.1981 110.959 30.4528C111.205 30.7074 111.504 30.9077 111.835 31.0404C112.167 31.173 112.523 31.2349 112.88 31.222C113.35 31.2652 113.822 31.1584 114.225 30.9175C114.627 30.6766 114.94 30.3144 115.117 29.8849L117.004 29.8849ZM110.285 27.0476H115.126C115.144 26.733 115.096 26.4182 114.984 26.123C114.872 25.8277 114.699 25.5583 114.476 25.3318C114.253 25.1052 113.984 24.9264 113.687 24.8064C113.391 24.6865 113.072 24.6281 112.751 24.6349C112.427 24.633 112.106 24.694 111.807 24.8145C111.507 24.935 111.235 25.1125 111.006 25.3368C110.776 25.5611 110.595 25.8278 110.471 26.1214C110.347 26.4151 110.284 26.7298 110.285 27.0476V27.0476Z" fill="white"/>
<path d="M40.4612 9.82303C40.8779 9.79367 41.2961 9.85547 41.6856 10.004C42.0751 10.1525 42.4261 10.384 42.7134 10.6818C43.0007 10.9796 43.2171 11.3363 43.347 11.7261C43.4768 12.116 43.5169 12.5292 43.4644 12.9361C43.4644 14.9377 42.3623 16.0882 40.4612 16.0882H38.1558V9.82303H40.4612ZM39.1471 15.2022H40.3504C40.6482 15.2196 40.9463 15.1717 41.2228 15.0619C41.4994 14.952 41.7475 14.783 41.9491 14.5672C42.1507 14.3513 42.3008 14.0941 42.3883 13.8141C42.4759 13.5342 42.4988 13.2386 42.4553 12.9489C42.4956 12.6603 42.4704 12.3665 42.3815 12.0886C42.2926 11.8107 42.1422 11.5556 41.941 11.3415C41.7399 11.1273 41.4929 10.9595 41.2179 10.8501C40.943 10.7406 40.6467 10.6923 40.3504 10.7084H39.1471V15.2022Z" fill="white"/>
<path d="M44.5842 13.7232C44.554 13.4125 44.5902 13.099 44.6905 12.8028C44.7909 12.5067 44.9532 12.2344 45.1671 12.0034C45.381 11.7724 45.6417 11.5878 45.9325 11.4615C46.2233 11.3353 46.5377 11.27 46.8557 11.27C47.1737 11.27 47.4881 11.3353 47.7789 11.4615C48.0697 11.5878 48.3304 11.7724 48.5443 12.0034C48.7581 12.2344 48.9205 12.5067 49.0209 12.8028C49.1212 13.099 49.1574 13.4125 49.1272 13.7232C49.158 14.0343 49.1222 14.3482 49.0221 14.6448C48.922 14.9415 48.7598 15.2143 48.5459 15.4457C48.3319 15.6772 48.071 15.8621 47.78 15.9887C47.4889 16.1152 47.1741 16.1806 46.8557 16.1806C46.5373 16.1806 46.2225 16.1152 45.9314 15.9887C45.6403 15.8621 45.3795 15.6772 45.1655 15.4457C44.9516 15.2143 44.7894 14.9415 44.6893 14.6448C44.5892 14.3482 44.5534 14.0343 44.5842 13.7232ZM48.1494 13.7232C48.1494 12.6983 47.6804 12.099 46.8573 12.099C46.031 12.099 45.5662 12.6983 45.5662 13.7232C45.5662 14.7563 46.031 15.351 46.8573 15.351C47.6804 15.351 48.1494 14.7522 48.1494 13.7232H48.1494Z" fill="white"/>
<path d="M55.166 16.0884H54.1799L53.1844 12.6062H53.1092L52.1178 16.0884H51.1412L49.8135 11.3604H50.7776L51.6405 14.9681H51.7115L52.7018 11.3604H53.6137L54.604 14.9681H54.6792L55.5378 11.3604H56.4884L55.166 16.0884Z" fill="white"/>
<path d="M57.605 11.3601H58.52V12.1112H58.5911C58.7116 11.8414 58.9148 11.6153 59.1725 11.4643C59.4301 11.3133 59.7293 11.2449 60.0284 11.2688C60.2628 11.2515 60.4981 11.2862 60.717 11.3703C60.9358 11.4544 61.1326 11.5858 61.2927 11.7547C61.4528 11.9235 61.5722 12.1256 61.6419 12.3459C61.7116 12.5662 61.73 12.7991 61.6956 13.0274V16.0881H60.745V13.2617C60.745 12.5019 60.4087 12.124 59.7057 12.124C59.5465 12.1167 59.3877 12.1433 59.24 12.2019C59.0923 12.2606 58.9593 12.3498 58.8501 12.4636C58.7409 12.5774 58.658 12.7131 58.6071 12.8613C58.5563 13.0095 58.5387 13.1667 58.5556 13.3222V16.0882H57.605L57.605 11.3601Z" fill="white"/>
<path d="M63.2104 9.51465H64.161V16.0884H63.2104V9.51465Z" fill="white"/>
<path d="M65.4824 13.7214C65.4521 13.4106 65.4884 13.0971 65.5888 12.8009C65.6892 12.5047 65.8515 12.2324 66.0654 12.0014C66.2793 11.7704 66.54 11.5859 66.8308 11.4596C67.1216 11.3333 67.4361 11.2681 67.7541 11.2681C68.0721 11.2681 68.3866 11.3333 68.6774 11.4596C68.9682 11.5859 69.2289 11.7704 69.4428 12.0014C69.6567 12.2324 69.8191 12.5047 69.9195 12.8009C70.0199 13.0971 70.0561 13.4106 70.0258 13.7214C70.0567 14.0324 70.0208 14.3463 69.9207 14.643C69.8206 14.9396 69.6583 15.2124 69.4444 15.4439C69.2304 15.6753 68.9695 15.8602 68.6784 15.9868C68.3873 16.1133 68.0725 16.1787 67.7541 16.1787C67.4358 16.1787 67.1209 16.1133 66.8298 15.9868C66.5387 15.8602 66.2778 15.6753 66.0639 15.4439C65.8499 15.2124 65.6877 14.9396 65.5875 14.643C65.4874 14.3463 65.4516 14.0324 65.4824 13.7214ZM69.0476 13.7214C69.0476 12.6965 68.5786 12.0971 67.7554 12.0971C66.9292 12.0971 66.4643 12.6965 66.4643 13.7214C66.4643 14.7544 66.9292 15.3492 67.7554 15.3492C68.5786 15.3492 69.0476 14.7503 69.0476 13.7214H69.0476Z" fill="white"/>
<path d="M71.0264 14.7522C71.0264 13.9012 71.6719 13.4105 72.8178 13.3408L74.1225 13.267V12.8589C74.1225 12.3595 73.7862 12.0775 73.1364 12.0775C72.6058 12.0775 72.2381 12.2687 72.1326 12.603H71.2123C71.3095 11.7909 72.0877 11.27 73.1803 11.27C74.3879 11.27 75.0689 11.8601 75.0689 12.8589V16.0894H74.1539V15.4249H74.0787C73.926 15.6632 73.7116 15.8575 73.4575 15.988C73.2033 16.1184 72.9184 16.1803 72.6319 16.1673C72.4297 16.1879 72.2253 16.1667 72.032 16.1051C71.8386 16.0435 71.6606 15.9427 71.5093 15.8094C71.358 15.6761 71.2369 15.5131 71.1537 15.3311C71.0706 15.149 71.0272 14.9518 71.0264 14.7522ZM74.1225 14.3482V13.9529L72.9463 14.0268C72.283 14.0704 71.9822 14.2918 71.9822 14.7087C71.9822 15.1342 72.3582 15.3818 72.8753 15.3818C73.0268 15.3969 73.1799 15.3819 73.3254 15.3377C73.4708 15.2935 73.6058 15.221 73.7221 15.1246C73.8385 15.0281 73.9339 14.9097 74.0027 14.7763C74.0715 14.643 74.1122 14.4974 74.1225 14.3482Z" fill="white"/>
<path d="M76.3184 13.7224C76.3184 12.2284 77.1008 11.2819 78.3177 11.2819C78.6187 11.2683 78.9175 11.3391 79.179 11.486C79.4406 11.6329 79.6542 11.8498 79.7948 12.1114H79.8658V9.51465H80.8164V16.0884H79.9055V15.3414H79.8303C79.6788 15.6013 79.4578 15.8155 79.1912 15.9609C78.9246 16.1063 78.6225 16.1774 78.3177 16.1663C77.0924 16.1664 76.3184 15.2199 76.3184 13.7224ZM77.3003 13.7224C77.3003 14.7252 77.7819 15.3286 78.5873 15.3286C79.3884 15.3286 79.8836 14.7165 79.8836 13.7265C79.8836 12.7411 79.3832 12.1202 78.5873 12.1202C77.7871 12.1202 77.3003 12.7277 77.3003 13.7224H77.3003Z" fill="white"/>
<path d="M84.749 13.7232C84.7187 13.4125 84.755 13.099 84.8553 12.8028C84.9557 12.5067 85.118 12.2344 85.3319 12.0034C85.5458 11.7724 85.8065 11.5878 86.0973 11.4615C86.388 11.3353 86.7025 11.27 87.0205 11.27C87.3385 11.27 87.6529 11.3353 87.9437 11.4615C88.2345 11.5878 88.4952 11.7724 88.7091 12.0034C88.9229 12.2344 89.0853 12.5067 89.1856 12.8028C89.286 13.099 89.3222 13.4125 89.292 13.7232C89.3228 14.0343 89.287 14.3482 89.1869 14.6448C89.0868 14.9415 88.9246 15.2143 88.7106 15.4457C88.4967 15.6772 88.2358 15.8621 87.9448 15.9887C87.6537 16.1152 87.3388 16.1806 87.0205 16.1806C86.7021 16.1806 86.3873 16.1152 86.0962 15.9887C85.8051 15.8621 85.5442 15.6772 85.3303 15.4457C85.1164 15.2143 84.9542 14.9415 84.8541 14.6448C84.7539 14.3482 84.7182 14.0343 84.749 13.7232ZM88.3142 13.7232C88.3142 12.6983 87.8452 12.099 87.0221 12.099C86.1958 12.099 85.731 12.6983 85.731 13.7232C85.731 14.7563 86.1958 15.351 87.0221 15.351C87.8452 15.351 88.3142 14.7522 88.3142 13.7232Z" fill="white"/>
<path d="M90.5674 11.3601H91.4824V12.1112H91.5535C91.674 11.8414 91.8772 11.6153 92.1349 11.4643C92.3925 11.3133 92.6917 11.2449 92.9908 11.2688C93.2252 11.2515 93.4605 11.2862 93.6794 11.3703C93.8982 11.4544 94.095 11.5858 94.2551 11.7547C94.4152 11.9235 94.5346 12.1256 94.6043 12.3459C94.674 12.5662 94.6924 12.7991 94.658 13.0274V16.0881H93.7074V13.2617C93.7074 12.5019 93.3711 12.124 92.6681 12.124C92.5089 12.1167 92.3501 12.1433 92.2024 12.2019C92.0547 12.2606 91.9217 12.3498 91.8125 12.4636C91.7033 12.5774 91.6204 12.7131 91.5695 12.8613C91.5187 13.0095 91.5011 13.1667 91.518 13.3222V16.0882H90.5674V11.3601Z" fill="white"/>
<path d="M100.029 10.1831V11.3818H101.073V12.1678H100.029V14.599C100.029 15.0942 100.237 15.3111 100.71 15.3111C100.831 15.3107 100.952 15.3035 101.073 15.2895V16.0668C100.902 16.0968 100.729 16.1127 100.556 16.1145C99.4986 16.1145 99.0776 15.7494 99.0776 14.8379V12.1677H98.313V11.3817H99.0776V10.1831H100.029Z" fill="white"/>
<path d="M102.372 9.51465H103.314V12.1202H103.389C103.515 11.8479 103.724 11.6205 103.987 11.4689C104.25 11.3173 104.554 11.249 104.858 11.2732C105.091 11.2607 105.324 11.299 105.54 11.3851C105.757 11.4712 105.951 11.6032 106.109 11.7716C106.268 11.9399 106.386 12.1405 106.457 12.3591C106.527 12.5776 106.548 12.8087 106.516 13.0358V16.0884H105.565V13.266C105.565 12.5108 105.207 12.1284 104.535 12.1284C104.372 12.1152 104.207 12.1373 104.053 12.193C103.9 12.2487 103.76 12.3367 103.645 12.4509C103.529 12.565 103.44 12.7026 103.385 12.854C103.329 13.0053 103.308 13.1668 103.322 13.327V16.0884H102.372L102.372 9.51465Z" fill="white"/>
<path d="M112.059 14.8109C111.93 15.243 111.65 15.6168 111.269 15.8668C110.887 16.1169 110.428 16.2273 109.972 16.1787C109.655 16.187 109.339 16.1273 109.048 16.0039C108.756 15.8805 108.496 15.6963 108.284 15.4641C108.072 15.2319 107.915 14.9573 107.822 14.6593C107.729 14.3612 107.704 14.047 107.747 13.7383C107.705 13.4287 107.731 13.1138 107.823 12.8148C107.916 12.5159 108.073 12.24 108.283 12.0058C108.494 11.7716 108.753 11.5845 109.044 11.4572C109.335 11.33 109.65 11.2655 109.968 11.2681C111.308 11.2681 112.117 12.1669 112.117 13.6516V13.9772H108.715V14.0295C108.701 14.203 108.723 14.3777 108.781 14.5423C108.839 14.7069 108.931 14.8578 109.052 14.9853C109.172 15.1128 109.319 15.2142 109.482 15.2828C109.645 15.3515 109.821 15.386 109.998 15.384C110.226 15.4108 110.456 15.3706 110.66 15.2686C110.864 15.1665 111.033 15.0072 111.144 14.8108L112.059 14.8109ZM108.715 13.2871H111.148C111.16 13.1285 111.138 12.9691 111.084 12.8192C111.029 12.6694 110.943 12.5324 110.832 12.417C110.72 12.3017 110.585 12.2105 110.435 12.1494C110.286 12.0883 110.125 12.0587 109.963 12.0623C109.798 12.0603 109.635 12.0906 109.483 12.1514C109.331 12.2123 109.192 12.3024 109.076 12.4166C108.96 12.5307 108.868 12.6666 108.806 12.8161C108.744 12.9656 108.713 13.1258 108.715 13.2871H108.715Z" fill="white"/>
</g>
<defs>
<clipPath id="clip0_110_3891">
<rect width="128" height="42" fill="white" transform="translate(0 0.655273)"/>
</clipPath>
</defs>
</svg>
