<svg width="141" height="43" viewBox="0 0 141 43" fill="none" xmlns="http://www.w3.org/2000/svg">
<g clip-path="url(#clip0_110_3890)">
<path d="M135.581 42.5508H5.31489C2.44904 42.5508 0.104248 40.2 0.104248 37.3269V5.98362C0.104248 3.11048 2.44904 0.759735 5.31489 0.759735H135.581C138.447 0.759735 140.792 3.11048 140.792 5.98362V37.3269C140.792 40.2 138.447 42.5508 135.581 42.5508Z" fill="black"/>
<path d="M135.581 0.759735H5.31489C2.44904 0.759735 0.104248 3.11048 0.104248 5.98362V37.3269C0.104248 40.2 2.44904 42.5508 5.31489 42.5508H135.581C138.447 42.5508 140.792 40.2 140.792 37.3269V5.98362C140.792 3.11048 138.447 0.759735 135.581 0.759735ZM135.581 1.59556C137.995 1.59556 139.958 3.56433 139.958 5.98362V37.3269C139.958 39.7466 137.995 41.7154 135.581 41.7154H5.31489C2.90174 41.7154 0.937951 39.7466 0.937951 37.3269V5.98362C0.937951 3.56433 2.90174 1.59556 5.31489 1.59556H135.581Z" fill="#A6A6A6"/>
<path d="M49.5202 11.4619C49.5202 12.3372 49.2617 13.0343 48.7438 13.5543C48.1557 14.1726 47.3891 14.4819 46.4467 14.4819C45.5442 14.4819 44.7769 14.1685 44.1458 13.5408C43.5137 12.9135 43.1982 12.1357 43.1982 11.2076C43.1982 10.2791 43.5137 9.50169 44.1458 8.87399C44.7769 8.24671 45.5442 7.93286 46.4467 7.93286C46.8945 7.93286 47.3232 8.02062 47.7303 8.19572C48.1373 8.37124 48.4638 8.60423 48.7081 8.89604L48.1585 9.44736C47.7445 8.95151 47.1746 8.7038 46.4467 8.7038C45.7885 8.7038 45.2193 8.93563 44.739 9.39962C44.2586 9.86413 44.0185 10.4664 44.0185 11.2076C44.0185 11.9488 44.2586 12.5511 44.739 13.0156C45.2193 13.4796 45.7885 13.7114 46.4467 13.7114C47.1449 13.7114 47.727 13.4783 48.1931 13.0115C48.4956 12.7074 48.6706 12.2847 48.7174 11.7418H46.4467V10.9888H49.4767C49.5059 11.1525 49.5202 11.3097 49.5202 11.4619Z" fill="white"/>
<path d="M49.5204 11.4619H49.4162C49.4154 12.3173 49.1662 12.9816 48.6704 13.4804L48.6692 13.4813L48.6688 13.4821C48.0993 14.0791 47.3673 14.3762 46.4469 14.3775C45.5685 14.3762 44.8332 14.0758 44.2193 13.4669C43.6068 12.8568 43.3038 12.112 43.3027 11.2076C43.3038 10.3028 43.6068 9.55844 44.2193 8.94871C44.8332 8.3394 45.5685 8.0386 46.4469 8.03735C46.8812 8.03735 47.2948 8.12229 47.6893 8.29165C48.0842 8.46226 48.3961 8.68584 48.6285 8.96344L48.7083 8.89605L48.6346 8.82219L48.085 9.37393L48.1587 9.44738L48.2389 9.38051C47.8057 8.86011 47.1976 8.59777 46.4469 8.59934C45.7643 8.5985 45.1638 8.84298 44.6671 9.32462C44.1656 9.80783 43.9137 10.444 43.9145 11.2076C43.9137 11.9712 44.1656 12.6074 44.6671 13.0906C45.1638 13.5723 45.7643 13.8167 46.4469 13.8159C47.1682 13.8172 47.783 13.5718 48.2669 13.0854C48.5902 12.7605 48.7734 12.3104 48.8215 11.7508L48.8312 11.6373H46.5511V11.0933H49.4769V10.9888L49.3742 11.0072C49.4028 11.1656 49.4162 11.3162 49.4162 11.4619H49.5204H49.6246C49.6246 11.3031 49.6099 11.1399 49.5794 10.9701L49.564 10.8844H46.3427V11.7418V11.8463H48.7176V11.7418L48.6138 11.7328C48.5678 12.2586 48.4009 12.6544 48.1196 12.9377C47.6718 13.3849 47.1223 13.6057 46.4469 13.6069C45.813 13.6061 45.2753 13.3873 44.8117 12.9405C44.3525 12.4952 44.1241 11.9267 44.1229 11.2076C44.1241 10.4885 44.3525 9.92004 44.8117 9.47475C45.2753 9.0279 45.813 8.80913 46.4469 8.80829C47.1516 8.80996 47.6837 9.04337 48.0789 9.51477L48.1522 9.60211L48.782 8.96992L48.8495 8.90222L48.788 8.82908C48.532 8.52307 48.1909 8.28016 47.7715 8.09983C47.3514 7.91898 46.9081 7.8284 46.4469 7.8284C45.5204 7.82756 44.7209 8.15405 44.0724 8.80014C43.4215 9.44498 43.0934 10.2555 43.0942 11.2076C43.0934 12.1593 43.4215 12.9703 44.0728 13.6155C44.7209 14.2612 45.5204 14.5873 46.4469 14.5864C47.4117 14.5873 48.212 14.266 48.8194 13.6265L48.744 13.5543L48.8177 13.6282C49.3575 13.0874 49.6254 12.3569 49.6246 11.4619H49.5204Z" fill="white"/>
<path d="M54.3238 8.84324H51.4763V10.8308H54.0442V11.5841H51.4763V13.5717H54.3238V14.3418H50.6736V8.07314H54.3238V8.84324Z" fill="white"/>
<path d="M54.3238 8.84326V8.73878H51.3721V10.9353H53.94V11.4793L51.3721 11.4796V13.6762H54.2196V14.2373H50.7778V8.17763H54.2196V8.84326H54.3238V8.73878V8.84326H54.428V8.07315V7.96868H50.5693V14.4463H54.428V13.5717V13.4672H51.5805V11.6886H54.1484V10.8308V10.7264H51.5805V8.94774H54.428V8.84326H54.3238Z" fill="white"/>
<path d="M57.712 14.3418H56.908V8.84324H55.1616V8.07314H59.4585V8.84324H57.712V14.3418Z" fill="white"/>
<path d="M57.712 14.3418V14.2373H57.0122V8.73878H55.2658V8.17763H59.3542V8.73878H57.6078V14.3418H57.712V14.2373V14.3418H57.8162V8.94774H59.5626V8.07315V7.96868H55.0574V8.84326V8.94774H56.8038V14.4463H57.712H57.8162V14.3418H57.712Z" fill="white"/>
<path d="M62.5674 14.3418V8.07314H63.3705V14.3418H62.5674Z" fill="white"/>
<path d="M62.5673 14.3418H62.6716V8.17763H63.2663V14.2373H62.5673V14.3418H62.6716H62.5673V14.4463H63.3705H63.4747V7.96868H62.5673H62.4631V14.4463H62.5673V14.3418Z" fill="white"/>
<path d="M66.9343 14.3418H66.1303V8.84324H64.384V8.07314H68.6808V8.84324H66.9343V14.3418Z" fill="white"/>
<path d="M66.9343 14.3418V14.2373H66.2345V8.73878H64.4882V8.17763H68.5765V8.73878H66.8301V14.3418H66.9343V14.2373V14.3418H67.0385V8.94774H68.7849V8.07315V7.96868H64.2798V8.84326V8.94774H66.0261V14.4463H66.9343H67.0385V14.3418H66.9343Z" fill="white"/>
<path d="M72.8232 13.007C73.286 13.4768 73.8522 13.7114 74.5219 13.7114C75.1916 13.7114 75.7582 13.4768 76.2203 13.007C76.6835 12.5373 76.9156 11.9369 76.9156 11.2076C76.9156 10.4783 76.6835 9.87792 76.2203 9.40819C75.7582 8.93845 75.1916 8.7038 74.5219 8.7038C73.8522 8.7038 73.286 8.93845 72.8232 9.40819C72.3611 9.87792 72.1291 10.4783 72.1291 11.2076C72.1291 11.9369 72.3611 12.5373 72.8232 13.007ZM76.8146 13.5318C76.1998 14.1656 75.4353 14.4819 74.5219 14.4819C73.6076 14.4819 72.8435 14.1656 72.2301 13.5318C71.6149 12.8988 71.3088 12.1239 71.3088 11.2076C71.3088 10.2913 71.6149 9.51632 72.2301 8.88339C72.8435 8.24953 73.6076 7.93286 74.5219 7.93286C75.4305 7.93286 76.193 8.2512 76.8105 8.88747C77.4273 9.52374 77.7358 10.2971 77.7358 11.2076C77.7358 12.1239 77.428 12.8988 76.8146 13.5318Z" fill="white"/>
<path d="M72.8234 13.007L72.7493 13.0805C73.2293 13.569 73.8281 13.8172 74.5221 13.8159C75.2158 13.8172 75.8154 13.569 76.2946 13.0805C76.7777 12.5915 77.0207 11.9589 77.02 11.2076C77.0207 10.4563 76.7777 9.82371 76.2946 9.33475C75.8154 8.84622 75.2158 8.59808 74.5221 8.59933C73.8281 8.59808 73.2293 8.84622 72.7493 9.33475C72.2673 9.82371 72.0238 10.4563 72.0251 11.2076C72.0238 11.9589 72.2673 12.5915 72.7493 13.0805L72.8234 13.007L72.8975 12.9336C72.4554 12.4826 72.2343 11.9152 72.2335 11.2076C72.2343 10.5 72.4554 9.93268 72.8975 9.48165C73.3436 9.03072 73.8764 8.80954 74.5221 8.80829C75.1673 8.80954 75.7014 9.03072 76.1464 9.48165C76.5893 9.93268 76.8103 10.5 76.8112 11.2076C76.8103 11.9152 76.5893 12.4826 76.1464 12.9336C75.7014 13.3845 75.1673 13.6057 74.5221 13.6069C73.8764 13.6057 73.3436 13.3845 72.8975 12.9336L72.8234 13.007ZM76.8148 13.5318L76.7403 13.4592C76.1427 14.073 75.412 14.3762 74.5221 14.3775C73.6318 14.3762 72.9011 14.073 72.3047 13.4592L72.3019 13.456L72.3047 13.4592C71.7084 12.8433 71.4141 12.1006 71.4133 11.2076C71.4141 10.3146 71.7084 9.57192 72.3047 8.95602C72.9011 8.34222 73.6318 8.0386 74.5221 8.03735C75.4063 8.0386 76.1353 8.34347 76.7362 8.96051C77.3346 9.57923 77.6306 10.3208 77.6318 11.2076C77.6306 12.1006 77.3354 12.8433 76.7403 13.4592L76.8148 13.5318L76.8897 13.6044C77.5215 12.954 77.841 12.1471 77.8403 11.2076C77.841 10.2735 77.5202 9.46827 76.8856 8.81487C76.2506 8.15896 75.4551 7.82725 74.5221 7.82839C73.5842 7.82725 72.7864 8.15739 72.1554 8.8108V8.81038C71.5224 9.46127 71.204 10.2682 71.2048 11.2076C71.204 12.1471 71.5224 12.954 72.1554 13.6049L72.1582 13.6078L72.1554 13.6044C72.7864 14.2578 73.5842 14.5873 74.5221 14.5864C75.4596 14.5873 76.2575 14.2578 76.8897 13.6044L76.8148 13.5318Z" fill="white"/>
<path d="M78.8635 14.3418V8.07314H79.8414L82.8802 12.9497H82.9148L82.8802 11.7417V8.07314H83.6842V14.3418H82.8456L79.6663 9.22887H79.6317L79.6663 10.4374V14.3418H78.8635Z" fill="white"/>
<path d="M78.8635 14.3418H78.9677V8.17763H79.7835L82.8223 13.0542H82.9147H83.0218L82.9844 11.7401V8.17763H83.5799V14.2373H82.9034L79.7241 9.12441H79.6316H79.5246L79.562 10.439V14.2373H78.8635V14.3418H78.9677H78.8635V14.4463H79.6662H79.7704V10.4357L79.7358 9.22607L79.6316 9.22889V9.33336H79.6662V9.22889L79.5779 9.28447L82.7877 14.4463H83.6841H83.7884V7.96868H82.8801H82.7759V11.7429L82.8105 12.9526L82.9147 12.9498V12.8453H82.8801V12.9498L82.9685 12.8943L79.899 7.96868H78.8635H78.7593V14.4463H78.8635V14.3418Z" fill="white"/>
<path d="M111.545 32.1031H113.49V19.0421H111.545V32.1031ZM129.06 23.747L126.831 29.4096H126.765L124.451 23.747H122.356L125.826 31.6615L123.848 36.0638H125.877L131.223 23.747H129.06ZM118.033 30.6196C117.395 30.6196 116.507 30.3004 116.507 29.5104C116.507 28.5023 117.614 28.1158 118.568 28.1158C119.424 28.1158 119.825 28.3006 120.345 28.553C120.194 29.7626 119.155 30.6196 118.033 30.6196ZM118.267 23.4612C116.859 23.4612 115.401 24.0832 114.798 25.461L116.523 26.1834C116.892 25.461 117.579 25.2255 118.3 25.2255C119.306 25.2255 120.328 25.8308 120.345 26.9062V27.0404C119.993 26.8388 119.239 26.5364 118.317 26.5364C116.457 26.5364 114.562 27.5611 114.562 29.4768C114.562 31.2244 116.088 32.3504 117.797 32.3504C119.105 32.3504 119.825 31.7623 120.278 31.0735H120.345V32.0815H122.222V27.0739C122.222 24.7554 120.496 23.4612 118.267 23.4612ZM106.249 25.3369H103.483V20.8599H106.249C107.703 20.8599 108.528 22.0667 108.528 23.0984C108.528 24.1106 107.703 25.3369 106.249 25.3369ZM106.199 19.0421H101.54V32.1031H103.483V27.1547H106.199C108.354 27.1547 110.473 25.5904 110.473 23.0984C110.473 20.6065 108.354 19.0421 106.199 19.0421ZM80.791 30.622C79.4476 30.622 78.3228 29.4944 78.3228 27.9456C78.3228 26.3805 79.4476 25.2358 80.791 25.2358C82.1173 25.2358 83.1582 26.3805 83.1582 27.9456C83.1582 29.4944 82.1173 30.622 80.791 30.622ZM83.0238 24.4783H82.9566C82.5203 23.9567 81.6804 23.4854 80.6229 23.4854C78.4067 23.4854 76.3754 25.4377 76.3754 27.9456C76.3754 30.4368 78.4067 32.3724 80.6229 32.3724C81.6804 32.3724 82.5203 31.901 82.9566 31.3628H83.0238V32.0023C83.0238 33.7025 82.1173 34.6114 80.6567 34.6114C79.4647 34.6114 78.7259 33.7527 78.4234 33.0291L76.7279 33.736C77.2148 34.9142 78.5077 36.3618 80.6567 36.3618C82.94 36.3618 84.8707 35.015 84.8707 31.7329V23.7547H83.0238V24.4783ZM86.2137 32.1031H88.1612V19.0417H86.2137V32.1031ZM91.0323 27.7942C90.9819 26.0772 92.3586 25.2022 93.3491 25.2022C94.1219 25.2022 94.7764 25.5891 94.9942 26.1451L91.0323 27.7942ZM97.0763 26.3132C96.7074 25.3198 95.5819 23.4854 93.2818 23.4854C90.9985 23.4854 89.1015 25.2864 89.1015 27.9289C89.1015 30.4201 90.9819 32.3724 93.5001 32.3724C95.5319 32.3724 96.7074 31.1269 97.1941 30.4032L95.683 29.3932C95.1797 30.1339 94.4908 30.622 93.5001 30.622C92.5096 30.622 91.8046 30.1674 91.3511 29.2756L97.2775 26.818L97.0763 26.3132ZM49.8593 24.8488V26.7339H54.3587C54.2244 27.7942 53.8719 28.5684 53.3345 29.1071C52.68 29.7637 51.6558 30.4874 49.8593 30.4874C47.0891 30.4874 44.9234 28.2488 44.9234 25.4716C44.9234 22.6944 47.0891 20.4555 49.8593 20.4555C51.3537 20.4555 52.4447 21.0448 53.2506 21.8022L54.577 20.4726C53.4522 19.3952 51.9578 18.5704 49.8593 18.5704C46.0649 18.5704 42.875 21.6676 42.875 25.4716C42.875 29.2756 46.0649 32.3724 49.8593 32.3724C51.9078 32.3724 53.4522 31.6995 54.6609 30.4368C55.9033 29.1912 56.2896 27.4408 56.2896 26.0271C56.2896 25.5891 56.2561 25.1855 56.1886 24.8488H49.8593ZM61.405 30.622C60.0616 30.622 58.903 29.5111 58.903 27.9289C58.903 26.3299 60.0616 25.2358 61.405 25.2358C62.7479 25.2358 63.9064 26.3299 63.9064 27.9289C63.9064 29.5111 62.7479 30.622 61.405 30.622ZM61.405 23.4854C58.9535 23.4854 56.9555 25.3536 56.9555 27.9289C56.9555 30.4874 58.9535 32.3724 61.405 32.3724C63.856 32.3724 65.8539 30.4874 65.8539 27.9289C65.8539 25.3536 63.856 23.4854 61.405 23.4854ZM71.1105 30.622C69.7677 30.622 68.609 29.5111 68.609 27.9289C68.609 26.3299 69.7677 25.2358 71.1105 25.2358C72.4535 25.2358 73.6121 26.3299 73.6121 27.9289C73.6121 29.5111 72.4535 30.622 71.1105 30.622ZM71.1105 23.4854C68.6591 23.4854 66.6616 25.3536 66.6616 27.9289C66.6616 30.4874 68.6591 32.3724 71.1105 32.3724C73.5616 32.3724 75.5596 30.4874 75.5596 27.9289C75.5596 25.3536 73.5616 23.4854 71.1105 23.4854Z" fill="white"/>
<path d="M11.0568 34.5996L10.9794 34.5253C10.6761 34.2036 10.4971 33.7041 10.4971 33.0573V33.2095V10.1033C10.4971 10.1012 10.4971 10.0996 10.4971 10.0979C10.4971 10.0999 10.4971 10.1016 10.4971 10.1037V10.2563C10.4971 9.5559 10.7058 9.02829 11.0555 8.71193L23.9673 21.6562L11.0568 34.5996ZM10.4971 10.0967C10.4971 10.0391 10.4986 9.98321 10.5016 9.92815C10.4986 9.9828 10.4971 10.0391 10.4971 10.0967ZM10.5016 9.92565C10.5016 9.92492 10.5016 9.92408 10.5019 9.92324C10.5016 9.92408 10.5016 9.92492 10.5016 9.92565ZM10.5019 9.91833C10.5019 9.91792 10.5019 9.9175 10.5019 9.91708C10.5019 9.9175 10.5019 9.91792 10.5019 9.91833Z" fill="url(#paint0_linear_110_3890)"/>
<path d="M28.2706 26.1255L28.3687 26.0696L33.4678 23.165C33.9539 22.8879 34.2779 22.552 34.4395 22.1966C34.2783 22.552 33.9542 22.8884 33.4678 23.1654L28.3687 26.07L28.2706 26.1255ZM28.2718 25.9724L23.9673 21.6562L28.2714 17.3408L33.4678 20.3004C34.1276 20.6764 34.4981 21.1608 34.56 21.6558C34.56 21.6562 34.56 21.6571 34.56 21.6578C34.4981 22.1517 34.1276 22.6366 33.4678 23.0124L28.2718 25.9724Z" fill="url(#paint1_linear_110_3890)"/>
<path d="M11.9771 35.0923C11.6164 35.0923 11.3017 34.9747 11.0563 34.7527L11.0567 34.7523C11.3021 34.9743 11.6173 35.0923 11.9779 35.0923C12.0092 35.0923 12.041 35.0914 12.0732 35.0899C12.0406 35.0914 12.0084 35.0923 11.9771 35.0923ZM11.9775 34.9392C11.6168 34.9396 11.3021 34.8217 11.0567 34.5997V34.5994L23.9672 21.6559L28.2717 25.9721L13.145 34.5887C12.7265 34.8266 12.33 34.9392 11.9775 34.9392ZM11.0531 34.7499C11.0302 34.7291 11.0078 34.7071 10.9858 34.6842L11.0531 34.7499Z" fill="url(#paint2_linear_110_3890)"/>
<path d="M23.9674 21.6558L11.0557 8.71152C11.3011 8.48992 11.6154 8.37238 11.9757 8.37238C12.329 8.37238 12.7259 8.48543 13.1452 8.72374L28.2715 17.3403L23.9674 21.6558ZM28.3689 17.2428L13.1452 8.5712C12.7259 8.33278 12.329 8.21974 11.9757 8.21974C11.974 8.21974 11.9728 8.21974 11.9712 8.21974C11.9733 8.21974 11.9748 8.21974 11.9773 8.21974C12.3299 8.21974 12.7263 8.33237 13.1452 8.57078L28.3689 17.2428Z" fill="url(#paint3_linear_110_3890)"/>
<path d="M12.0734 35.0898C12.4011 35.071 12.7638 34.958 13.1452 34.7413L28.2707 26.1251L13.1452 34.7413C12.7641 34.9584 12.4011 35.071 12.0734 35.0898ZM11.0565 34.7527L11.0533 34.7499C11.0544 34.7507 11.0557 34.7519 11.0565 34.7527ZM10.9861 34.6842L10.9795 34.6777V34.6773C10.982 34.6797 10.984 34.6821 10.9861 34.6842Z" fill="black"/>
<path d="M28.2705 26.1255L28.3687 26.0696L28.2705 26.1255Z" fill="url(#paint4_linear_110_3890)"/>
<path d="M11.9782 35.0923C11.6175 35.0923 11.3023 34.9743 11.0569 34.7523L11.0565 34.7527C11.0557 34.7519 11.0544 34.7507 11.0533 34.7499L10.9861 34.6842C10.984 34.6821 10.982 34.6797 10.9795 34.6773L11.0569 34.5997C11.3023 34.8217 11.6171 34.9396 11.9777 34.9392C12.3302 34.9392 12.7267 34.8266 13.1452 34.5887L28.2719 25.9721L28.3689 26.0693L28.2707 26.1252L13.1452 34.7413C12.7638 34.958 12.4011 35.0711 12.0734 35.0899C12.0412 35.0914 12.0094 35.0923 11.9782 35.0923Z" fill="url(#paint5_linear_110_3890)"/>
<path d="M10.9794 34.6777C10.6761 34.356 10.4971 33.8565 10.4971 33.2097V33.2093C10.4971 33.8565 10.6761 34.3556 10.9794 34.6773V34.6777Z" fill="black"/>
<path d="M10.9794 34.6772C10.6761 34.3556 10.4971 33.8565 10.4971 33.2092V33.057C10.4971 33.7038 10.6761 34.2033 10.9794 34.525L11.0568 34.5993L10.9794 34.6772Z" fill="url(#paint6_linear_110_3890)"/>
<path d="M10.9795 34.6772L11.0569 34.5993V34.5996L10.9795 34.6772Z" fill="url(#paint7_linear_110_3890)"/>
<path d="M34.4395 22.1963C34.5196 22.0199 34.5599 21.8388 34.5599 21.6575C34.5599 21.6572 34.5599 21.6568 34.5599 21.6568C34.5599 21.8384 34.5196 22.0195 34.4395 22.1963Z" fill="black"/>
<path d="M28.3686 26.0693L28.2717 25.9722L33.4677 23.0121C34.1276 22.6363 34.498 22.1514 34.5599 21.6576C34.5599 21.8388 34.5196 22.02 34.4395 22.1963C34.2778 22.5518 33.9538 22.8877 33.4677 23.1647L28.3686 26.0693Z" fill="url(#paint8_linear_110_3890)"/>
<path d="M34.5601 21.6558V21.6553C34.5597 21.1088 34.1954 20.5624 33.4679 20.1477L28.3688 17.2432H28.3684L28.3688 17.2428L33.4679 20.1473C34.1962 20.562 34.5609 21.1092 34.5601 21.6558Z" fill="#404040"/>
<path d="M34.5601 21.6558C34.4982 21.1607 34.1277 20.6763 33.4678 20.3004L28.2715 17.3407L28.3684 17.2436H28.3688L33.4678 20.1482C34.1954 20.5628 34.5597 21.1092 34.5601 21.6558Z" fill="url(#paint9_linear_110_3890)"/>
<path d="M10.4971 10.0977C10.4971 10.0972 10.4971 10.0968 10.4971 10.0964C10.4971 10.0968 10.4971 10.0972 10.4971 10.0977ZM10.5016 9.92788C10.5016 9.92704 10.5016 9.92621 10.5016 9.92537C10.5016 9.92621 10.5016 9.92704 10.5016 9.92788ZM10.5019 9.92297C10.5019 9.9213 10.5019 9.91973 10.5019 9.91806C10.5019 9.91973 10.5019 9.9213 10.5019 9.92297ZM10.5019 9.91681C10.5622 8.84351 11.1443 8.22354 11.9678 8.21988C11.6108 8.22197 11.2998 8.33951 11.0564 8.55943V8.55902L11.0535 8.56194C11.0278 8.58513 11.0034 8.60969 10.9794 8.63497C10.7058 8.9251 10.5332 9.35973 10.5019 9.91681Z" fill="#404040"/>
<path d="M10.4971 10.2563V10.1037C10.4971 10.1016 10.4971 10.0999 10.4971 10.098C10.4971 10.0975 10.4971 10.0971 10.4971 10.0967C10.4971 10.0391 10.4986 9.98283 10.5016 9.92818C10.5016 9.92735 10.5016 9.92651 10.5016 9.92568C10.5016 9.92495 10.5016 9.92411 10.5019 9.92327C10.5019 9.9216 10.5019 9.92004 10.5019 9.91836C10.5019 9.91795 10.5019 9.91753 10.5019 9.91711C10.5332 9.36004 10.7058 8.92541 10.9794 8.63527L11.0555 8.71196C10.7058 9.02832 10.4971 9.55593 10.4971 10.2563ZM11.0535 8.56224L11.0564 8.55932C11.0555 8.56057 11.0543 8.56141 11.0535 8.56224Z" fill="url(#paint10_linear_110_3890)"/>
<path d="M28.2715 17.3403L13.1452 8.72375C12.7259 8.48544 12.329 8.37239 11.9757 8.37239C11.6154 8.37239 11.3011 8.48993 11.0557 8.71153L10.9795 8.63484C11.0036 8.60956 11.028 8.585 11.0536 8.56181C11.0544 8.56097 11.0557 8.56014 11.0565 8.5593C11.2999 8.33938 11.6109 8.22184 11.968 8.21975C11.9688 8.21975 11.9699 8.21975 11.9712 8.21975C11.9728 8.21975 11.974 8.21975 11.9757 8.21975C12.329 8.21975 12.7259 8.33279 13.1452 8.57121L28.3689 17.2429L28.3685 17.2432L28.2715 17.3403Z" fill="url(#paint11_linear_110_3890)"/>
</g>
<defs>
<linearGradient id="paint0_linear_110_3890" x1="22.8224" y1="9.85951" x2="5.28853" y2="27.349" gradientUnits="userSpaceOnUse">
<stop stop-color="#00A0FF"/>
<stop offset="0.00657445" stop-color="#00A1FF"/>
<stop offset="0.2601" stop-color="#00BEFF"/>
<stop offset="0.5122" stop-color="#00D2FF"/>
<stop offset="0.7604" stop-color="#00DFFF"/>
<stop offset="1" stop-color="#00E3FF"/>
</linearGradient>
<linearGradient id="paint1_linear_110_3890" x1="35.364" y1="21.6569" x2="10.1476" y2="21.6569" gradientUnits="userSpaceOnUse">
<stop stop-color="#FFE000"/>
<stop offset="0.4087" stop-color="#FFBD00"/>
<stop offset="0.7754" stop-color="#FFA500"/>
<stop offset="1" stop-color="#FF9C00"/>
</linearGradient>
<linearGradient id="paint2_linear_110_3890" x1="25.9771" y1="24.054" x2="2.19979" y2="47.771" gradientUnits="userSpaceOnUse">
<stop stop-color="#FF3A44"/>
<stop offset="1" stop-color="#C31162"/>
</linearGradient>
<linearGradient id="paint3_linear_110_3890" x1="7.70908" y1="0.943504" x2="18.3266" y2="11.5341" gradientUnits="userSpaceOnUse">
<stop stop-color="#32A071"/>
<stop offset="0.0685" stop-color="#2DA771"/>
<stop offset="0.4762" stop-color="#15CF74"/>
<stop offset="0.8009" stop-color="#06E775"/>
<stop offset="1" stop-color="#00F076"/>
</linearGradient>
<linearGradient id="paint4_linear_110_3890" x1="35.364" y1="21.6571" x2="10.1474" y2="21.6571" gradientUnits="userSpaceOnUse">
<stop stop-color="#CCB300"/>
<stop offset="0.4087" stop-color="#CC9700"/>
<stop offset="0.7754" stop-color="#CC8400"/>
<stop offset="1" stop-color="#CC7D00"/>
</linearGradient>
<linearGradient id="paint5_linear_110_3890" x1="25.9773" y1="24.054" x2="2.20005" y2="47.771" gradientUnits="userSpaceOnUse">
<stop stop-color="#CC2E36"/>
<stop offset="1" stop-color="#9C0E4E"/>
</linearGradient>
<linearGradient id="paint6_linear_110_3890" x1="22.8225" y1="9.85921" x2="5.28856" y2="27.3487" gradientUnits="userSpaceOnUse">
<stop stop-color="#008DE0"/>
<stop offset="0.00657445" stop-color="#008DE0"/>
<stop offset="0.2601" stop-color="#00A7E0"/>
<stop offset="0.5122" stop-color="#00B8E0"/>
<stop offset="0.7604" stop-color="#00C4E0"/>
<stop offset="1" stop-color="#00C7E0"/>
</linearGradient>
<linearGradient id="paint7_linear_110_3890" x1="25.9778" y1="24.0543" x2="2.20119" y2="47.772" gradientUnits="userSpaceOnUse">
<stop stop-color="#E0333C"/>
<stop offset="1" stop-color="#AB0F56"/>
</linearGradient>
<linearGradient id="paint8_linear_110_3890" x1="35.3639" y1="21.6566" x2="10.1476" y2="21.6566" gradientUnits="userSpaceOnUse">
<stop stop-color="#E0C500"/>
<stop offset="0.4087" stop-color="#E0A600"/>
<stop offset="0.7754" stop-color="#E09100"/>
<stop offset="1" stop-color="#E08900"/>
</linearGradient>
<linearGradient id="paint9_linear_110_3890" x1="35.3641" y1="21.6568" x2="10.1477" y2="21.6568" gradientUnits="userSpaceOnUse">
<stop stop-color="#FFE840"/>
<stop offset="0.4087" stop-color="#FFCE40"/>
<stop offset="0.7754" stop-color="#FFBC40"/>
<stop offset="1" stop-color="#FFB540"/>
</linearGradient>
<linearGradient id="paint10_linear_110_3890" x1="22.8224" y1="9.85954" x2="5.28854" y2="27.349" gradientUnits="userSpaceOnUse">
<stop stop-color="#40B8FF"/>
<stop offset="0.00657445" stop-color="#40B9FF"/>
<stop offset="0.2601" stop-color="#40CEFF"/>
<stop offset="0.5122" stop-color="#40DDFF"/>
<stop offset="0.7604" stop-color="#40E7FF"/>
<stop offset="1" stop-color="#40EAFF"/>
</linearGradient>
<linearGradient id="paint11_linear_110_3890" x1="7.70908" y1="0.943512" x2="18.3266" y2="11.5341" gradientUnits="userSpaceOnUse">
<stop stop-color="#65B895"/>
<stop offset="0.0685" stop-color="#62BD95"/>
<stop offset="0.4762" stop-color="#50DB97"/>
<stop offset="0.8009" stop-color="#44ED98"/>
<stop offset="1" stop-color="#40F498"/>
</linearGradient>
<clipPath id="clip0_110_3890">
<rect width="141" height="42" fill="white" transform="translate(0 0.655273)"/>
</clipPath>
</defs>
</svg>
